<svg
    width="35"
    height="28"
    viewBox="0 0 35 28"
    fill="none"
    xmlns="http://www.w3.org/2000/svg"
>
    <mask id="path-1-inside-1_2_17" fill="white">
        <path
            fill-rule="evenodd"
            clip-rule="evenodd"
            d="M21.5903 1.04408C21.1634 1.26278 20.4881 1.98304 20.3022 2.41787C20.1558 2.76043 20.0677 2.78345 19.9091 2.52094C19.6904 2.15896 19.1755 1.7764 18.7873 1.6874C18.0545 1.51942 17.6234 1.85549 17.6227 2.59508C17.6226 2.75102 17.5959 2.87859 17.5633 2.87857C17.5308 2.87854 17.228 2.66522 16.8903 2.4045C16.5527 2.1437 15.9719 1.79942 15.5997 1.63935C14.7186 1.26031 12.436 0.850121 12.4358 1.07079C12.4358 1.10277 12.5298 1.41694 12.6448 1.76903C12.9419 2.67894 13.373 3.31842 14.046 3.84772C14.3662 4.09954 14.6281 4.32543 14.6281 4.34972C14.628 4.37392 12.7536 4.40297 10.4624 4.41406C5.76198 4.437 5.82166 4.42928 5.28212 5.08812L4.99897 5.43395L4.96598 9.06122L4.93298 12.6886L4.65914 12.5229C4.50846 12.4318 3.98348 12.0453 3.49252 11.6642C2.6094 10.9787 1.54267 10.4363 1.19222 10.4944C0.670725 10.581 0.779577 11.1744 1.48014 12.0636C1.99103 12.712 3.69737 14.2405 4.50529 14.7732L4.91713 15.0449L4.98718 19.1735C5.06292 23.6429 5.05053 23.551 5.63136 23.9662C6.09363 24.2967 6.52699 24.3601 8.33659 24.3621L9.99404 24.364L10.0582 24.8997C10.1893 25.9925 10.6471 27.0582 11.0917 27.3058C11.3255 27.4359 11.3462 27.4326 11.5241 27.2367C11.8218 26.9087 12.0336 26.1675 12.0903 25.2542L12.1429 24.4081L17.6672 24.4128L23.1915 24.4174L23.1919 24.7136C23.1928 25.292 23.4868 26.6629 23.6785 26.9821C23.999 27.516 24.1288 27.5606 24.4159 27.236C24.8529 26.7419 24.9836 26.4327 25.2123 25.3526L25.4367 24.2927L27.3669 24.2942C29.4846 24.2958 29.5863 24.2759 30.0766 23.7615L30.3263 23.4997L30.3797 19.2917L30.4332 15.0838L31.2701 14.4855C32.4342 13.6531 33.5909 12.5308 34.0716 11.7672C34.5021 11.0832 34.5717 10.7643 34.3279 10.5924C33.93 10.3118 33.0376 10.7419 31.5525 11.9301L30.4351 12.8242L30.4122 9.1228L30.3893 5.42145L30.1304 5.08904C29.9747 4.88922 29.692 4.68277 29.4214 4.57145C28.979 4.38942 28.9107 4.38682 25.3255 4.41687C22.6915 4.43894 21.6691 4.42106 21.642 4.35259C21.6212 4.30045 21.8306 4.13487 22.1071 3.98474C22.6779 3.6747 23.1196 3.23896 23.4076 2.70175C23.6461 2.25706 23.6607 1.89508 23.4576 1.46364C23.1744 0.862236 22.32 0.670286 21.5903 1.04408ZM9.49597 12.7742C8.76756 12.9585 8.18173 13.4965 7.995 14.1524C7.87762 14.5646 7.99722 14.7164 8.44002 14.7168C8.78553 14.717 8.83245 14.6933 8.83259 14.5181C8.83303 13.9975 9.73042 13.3793 10.3245 13.4904C10.6816 13.5572 11.215 14.0017 11.2894 14.2943C11.3907 14.6928 11.4201 14.7193 11.762 14.7196C12.1548 14.7199 12.2487 14.5945 12.1581 14.1901C11.9124 13.0919 10.7283 12.4621 9.49597 12.7742ZM24.3575 12.8714C23.7993 13.1071 23.603 13.2773 23.3372 13.7563C22.9553 14.4443 23.0524 14.7291 23.6688 14.7296C23.9342 14.7298 23.9981 14.6962 23.9982 14.5564C23.9984 14.3182 24.2267 13.9678 24.5462 13.715C24.9523 13.3938 25.5935 13.4298 26.0418 13.7989C26.2275 13.9518 26.4175 14.2148 26.464 14.3834C26.5399 14.6579 26.586 14.6924 26.9075 14.7157C27.2167 14.738 27.2747 14.713 27.3278 14.5345C27.3989 14.2948 27.1863 13.7289 26.894 13.3802C26.6075 13.0383 25.7614 12.6999 25.2024 12.7036C24.9525 12.7052 24.5723 12.7807 24.3575 12.8714ZM13.2534 16.7304C13.3531 17.3976 13.5006 17.7181 13.8823 18.097C14.6211 18.8301 15.6802 19.2035 17.2109 19.2704C19.0782 19.352 20.4379 19.0167 21.3414 18.2517C21.7864 17.8751 22.0188 17.4243 22.1658 16.6533L22.2263 16.336L17.7098 16.3322L13.1933 16.3284L13.2534 16.7304Z"
        />
    </mask>
    <path
        fill-rule="evenodd"
        clip-rule="evenodd"
        d="M21.5903 1.04408C21.1634 1.26278 20.4881 1.98304 20.3022 2.41787C20.1558 2.76043 20.0677 2.78345 19.9091 2.52094C19.6904 2.15896 19.1755 1.7764 18.7873 1.6874C18.0545 1.51942 17.6234 1.85549 17.6227 2.59508C17.6226 2.75102 17.5959 2.87859 17.5633 2.87857C17.5308 2.87854 17.228 2.66522 16.8903 2.4045C16.5527 2.1437 15.9719 1.79942 15.5997 1.63935C14.7186 1.26031 12.436 0.850121 12.4358 1.07079C12.4358 1.10277 12.5298 1.41694 12.6448 1.76903C12.9419 2.67894 13.373 3.31842 14.046 3.84772C14.3662 4.09954 14.6281 4.32543 14.6281 4.34972C14.628 4.37392 12.7536 4.40297 10.4624 4.41406C5.76198 4.437 5.82166 4.42928 5.28212 5.08812L4.99897 5.43395L4.96598 9.06122L4.93298 12.6886L4.65914 12.5229C4.50846 12.4318 3.98348 12.0453 3.49252 11.6642C2.6094 10.9787 1.54267 10.4363 1.19222 10.4944C0.670725 10.581 0.779577 11.1744 1.48014 12.0636C1.99103 12.712 3.69737 14.2405 4.50529 14.7732L4.91713 15.0449L4.98718 19.1735C5.06292 23.6429 5.05053 23.551 5.63136 23.9662C6.09363 24.2967 6.52699 24.3601 8.33659 24.3621L9.99404 24.364L10.0582 24.8997C10.1893 25.9925 10.6471 27.0582 11.0917 27.3058C11.3255 27.4359 11.3462 27.4326 11.5241 27.2367C11.8218 26.9087 12.0336 26.1675 12.0903 25.2542L12.1429 24.4081L17.6672 24.4128L23.1915 24.4174L23.1919 24.7136C23.1928 25.292 23.4868 26.6629 23.6785 26.9821C23.999 27.516 24.1288 27.5606 24.4159 27.236C24.8529 26.7419 24.9836 26.4327 25.2123 25.3526L25.4367 24.2927L27.3669 24.2942C29.4846 24.2958 29.5863 24.2759 30.0766 23.7615L30.3263 23.4997L30.3797 19.2917L30.4332 15.0838L31.2701 14.4855C32.4342 13.6531 33.5909 12.5308 34.0716 11.7672C34.5021 11.0832 34.5717 10.7643 34.3279 10.5924C33.93 10.3118 33.0376 10.7419 31.5525 11.9301L30.4351 12.8242L30.4122 9.1228L30.3893 5.42145L30.1304 5.08904C29.9747 4.88922 29.692 4.68277 29.4214 4.57145C28.979 4.38942 28.9107 4.38682 25.3255 4.41687C22.6915 4.43894 21.6691 4.42106 21.642 4.35259C21.6212 4.30045 21.8306 4.13487 22.1071 3.98474C22.6779 3.6747 23.1196 3.23896 23.4076 2.70175C23.6461 2.25706 23.6607 1.89508 23.4576 1.46364C23.1744 0.862236 22.32 0.670286 21.5903 1.04408ZM9.49597 12.7742C8.76756 12.9585 8.18173 13.4965 7.995 14.1524C7.87762 14.5646 7.99722 14.7164 8.44002 14.7168C8.78553 14.717 8.83245 14.6933 8.83259 14.5181C8.83303 13.9975 9.73042 13.3793 10.3245 13.4904C10.6816 13.5572 11.215 14.0017 11.2894 14.2943C11.3907 14.6928 11.4201 14.7193 11.762 14.7196C12.1548 14.7199 12.2487 14.5945 12.1581 14.1901C11.9124 13.0919 10.7283 12.4621 9.49597 12.7742ZM24.3575 12.8714C23.7993 13.1071 23.603 13.2773 23.3372 13.7563C22.9553 14.4443 23.0524 14.7291 23.6688 14.7296C23.9342 14.7298 23.9981 14.6962 23.9982 14.5564C23.9984 14.3182 24.2267 13.9678 24.5462 13.715C24.9523 13.3938 25.5935 13.4298 26.0418 13.7989C26.2275 13.9518 26.4175 14.2148 26.464 14.3834C26.5399 14.6579 26.586 14.6924 26.9075 14.7157C27.2167 14.738 27.2747 14.713 27.3278 14.5345C27.3989 14.2948 27.1863 13.7289 26.894 13.3802C26.6075 13.0383 25.7614 12.6999 25.2024 12.7036C24.9525 12.7052 24.5723 12.7807 24.3575 12.8714ZM13.2534 16.7304C13.3531 17.3976 13.5006 17.7181 13.8823 18.097C14.6211 18.8301 15.6802 19.2035 17.2109 19.2704C19.0782 19.352 20.4379 19.0167 21.3414 18.2517C21.7864 17.8751 22.0188 17.4243 22.1658 16.6533L22.2263 16.336L17.7098 16.3322L13.1933 16.3284L13.2534 16.7304Z"
        fill="white"
        stroke="hsla(7, 100%, 63%, 1)"
        stroke-width="1"
        mask="url(#path-1-inside-1_2_17)"
    />
</svg>