<svg width="39" height="38" viewBox="0 0 39 38" fill="none" xmlns="http://www.w3.org/2000/svg">
    <path fill-rule="evenodd" clip-rule="evenodd"
        d="M8.81824 0.498882C8.30611 1.04863 8.59398 2.63951 9.32723 3.31163C9.79136 3.73713 10.2221 3.85601 10.7607 3.70738C11.4404 3.51963 11.9375 2.97726 11.9375 2.42338C11.9375 1.88088 11.3295 1.21588 10.3717 0.710882C9.43373 0.216257 9.12124 0.173632 8.81824 0.498882ZM29.5737 0.645382C28.8526 1.10001 28.1875 1.96051 28.1875 2.43876C28.1875 3.25813 28.8484 3.80463 29.701 3.69026C30.7194 3.55376 31.312 2.79351 31.3122 1.62288C31.3125 1.05351 31.2596 0.904132 30.9471 0.591632C30.7461 0.390632 30.5045 0.226257 30.4101 0.226257C30.3156 0.226257 29.9394 0.414882 29.5737 0.645382ZM17.1875 3.30663C13.1746 3.59676 10.013 4.27226 8.06598 5.25526C7.10311 5.74151 6.79649 6.19701 6.48661 7.60126C6.37286 8.11688 6.26073 8.56038 6.23748 8.58688C6.17898 8.65376 5.60661 8.27163 4.93748 7.71888C4.13186 7.05338 3.66348 6.85126 2.92723 6.85126C2.04811 6.85126 1.54236 7.17901 1.20249 7.96913C0.86936 8.74351 0.864234 9.59113 1.18636 10.6194C1.67473 12.1778 3.32761 14.5219 5.09761 16.1663L6.08473 17.0833L5.94161 18.4985C5.86286 19.2769 5.77061 20.1106 5.73648 20.3513C5.70248 20.5919 5.65161 22.42 5.62348 24.4138C5.58636 27.0485 5.61986 28.4018 5.74611 29.3675C6.00561 31.3529 6.34986 32.5566 6.68898 32.6643C7.02836 32.7719 9.32161 32.9696 10.2712 32.973L11.1674 32.9763L11.3811 33.6325C11.7375 34.7271 12.536 36.3055 12.9354 36.7049C14.3511 38.1206 15.8002 37.0733 16.6911 33.9904L16.978 32.9975L18.3015 32.9244C20.2249 32.8179 22.9634 32.61 23.6099 32.5214L24.1694 32.4448L24.3076 32.9918C24.5651 34.0106 25.0776 35.3253 25.4772 35.9918C26.4039 37.5376 27.757 37.6543 28.6756 36.2675C29.173 35.5166 29.3986 34.7698 29.6592 33.0114C29.8671 31.6099 29.8674 31.609 30.2461 31.5329C31.4005 31.3008 33.6422 30.6918 33.9817 30.5181C34.7096 30.1459 35.291 29.5995 35.568 29.0275C35.9329 28.2738 35.8987 27.9064 34.7394 20.1099L34.1924 16.431L34.5336 16.0079C36.4419 13.6424 37.1061 12.615 37.7687 11.0038C38.0376 10.3503 38.1155 9.95563 38.1196 9.22626C38.1259 8.12576 37.8956 7.55613 37.273 7.13251C36.3915 6.53288 35.0699 6.91051 34.0719 8.04713C33.867 8.28051 33.6751 8.43038 33.6456 8.38013C33.616 8.32988 33.5209 7.60188 33.4341 6.76238C33.2981 5.44563 33.2369 5.19888 32.9884 4.96538C32.4167 4.42838 28.0716 3.60451 24.5625 3.36776C23.0367 3.26476 18.3081 3.22563 17.1875 3.30663ZM14.75 4.98563C11.6247 5.33326 9.03786 5.82563 8.64961 6.14676C8.26349 6.46613 7.24748 13.9645 6.67911 20.6895C6.41461 23.8191 6.66236 29.6526 7.08224 30.1814C7.18511 30.3109 7.40861 30.3593 8.81248 30.5554C9.05311 30.589 9.58748 30.6678 9.99998 30.7304C11.4764 30.9545 13.5605 31.0386 17.4375 31.0308C20.8207 31.0239 21.6556 30.9831 23.3682 30.741C27.6722 30.1326 31.7642 29.1011 32.1415 28.5294C32.2646 28.3428 32.3479 27.4133 32.4382 25.2169C32.64 20.3115 32.2905 14.0434 31.5674 9.60051C31.1965 7.32226 30.9432 6.05551 30.8404 5.96513C30.6319 5.78188 28.8906 5.44876 26.8905 5.20938C25.1945 5.00638 23.8156 4.94501 20.25 4.91376C17.775 4.89213 15.3 4.92451 14.75 4.98563ZM24.5587 14.0075C23.8822 14.3493 23.411 15.006 23.4629 15.5348C23.5114 16.0304 23.999 16.1448 24.183 15.7036C24.4512 15.0606 24.9231 14.7263 25.5625 14.7263C26.1202 14.7263 26.4006 14.9139 26.6896 15.4804C26.9661 16.0224 27.342 16.1384 27.5516 15.7465C27.8264 15.2331 27.2934 14.3191 26.5124 13.9644C25.8289 13.654 25.2324 13.6671 24.5587 14.0075ZM12.9867 14.0899C12.6001 14.2654 12.4051 14.4643 12.1962 14.8956C11.8879 15.5328 11.8924 16.0158 12.2074 16.0756C12.4385 16.1198 12.5911 15.9765 12.9389 15.3893C13.4707 14.4914 14.6999 14.6035 15.3662 15.6105C15.7242 16.1515 15.8279 16.193 16.1114 15.9095C16.2612 15.7596 16.275 15.6439 16.1742 15.3789C15.9787 14.8645 15.4671 14.248 15.0622 14.0386C14.5694 13.7838 13.6086 13.8074 12.9867 14.0899ZM16.0625 19.1344C16.0625 19.3843 16.5562 20.2545 16.919 20.6441C17.9429 21.7436 20.1149 22.1235 21.64 21.4699C22.6032 21.057 23.6724 19.8348 23.6847 19.1325C23.6869 19.0109 22.8431 18.9763 19.875 18.9763C16.8845 18.9763 16.0625 19.0104 16.0625 19.1344Z"
        fill="#F3F4C7" />
</svg>