<svg width="38" height="38" viewBox="0 0 38 38" fill="none" xmlns="http://www.w3.org/2000/svg">
    <path fill-rule="evenodd" clip-rule="evenodd"
        d="M7.8696 0.272625C7.35747 0.822375 7.64535 2.41325 8.3786 3.08537C8.84272 3.51087 9.27347 3.62975 9.8121 3.48113C10.4917 3.29338 10.9888 2.751 10.9888 2.19713C10.9888 1.65463 10.3808 0.989625 9.4231 0.484625C8.4851 -0.0100001 8.1726 -0.052625 7.8696 0.272625ZM28.6251 0.419125C27.904 0.87375 27.2388 1.73425 27.2388 2.2125C27.2388 3.03187 27.8997 3.57837 28.7523 3.464C29.7707 3.3275 30.3633 2.56725 30.3636 1.39662C30.3638 0.82725 30.311 0.677875 29.9985 0.365375C29.7975 0.164375 29.5558 0 29.4615 0C29.367 0 28.9907 0.188625 28.6251 0.419125ZM16.2388 3.08037C12.226 3.3705 9.06435 4.046 7.11735 5.029C6.15447 5.51525 5.84785 5.97075 5.53797 7.375C5.42422 7.89062 5.3121 8.33412 5.28885 8.36062C5.23035 8.4275 4.65797 8.04537 3.98885 7.49262C3.18322 6.82712 2.71485 6.625 1.9786 6.625C1.09947 6.625 0.593721 6.95275 0.253846 7.74287C-0.0792788 8.51725 -0.0844045 9.36488 0.237721 10.3931C0.726096 11.9515 2.37897 14.2956 4.14897 15.94L5.1361 16.857L4.99297 18.2723C4.91422 19.0506 4.82197 19.8844 4.78785 20.125C4.75385 20.3656 4.70297 22.1938 4.67485 24.1875C4.63772 26.8222 4.67122 28.1755 4.79747 29.1413C5.05697 31.1266 5.40122 32.3304 5.74035 32.438C6.07972 32.5456 8.37297 32.7434 9.3226 32.7467L10.2187 32.75L10.4325 33.4062C10.7888 34.5009 11.5873 36.0793 11.9867 36.4786C13.4025 37.8944 14.8516 36.847 15.7425 33.7641L16.0293 32.7713L17.3528 32.6981C19.2762 32.5916 22.0147 32.3837 22.6612 32.2951L23.2207 32.2185L23.359 32.7655C23.6165 33.7844 24.129 35.099 24.5286 35.7655C25.4552 37.3114 26.8083 37.428 27.727 36.0412C28.2243 35.2904 28.45 34.5435 28.7106 32.7851C28.9185 31.3836 28.9187 31.3828 29.2975 31.3066C30.4518 31.0745 32.6936 30.4655 33.0331 30.2919C33.761 29.9196 34.3423 29.3733 34.6193 28.8013C34.9842 28.0475 34.9501 27.6801 33.7907 19.8836L33.2437 16.2048L33.585 15.7816C35.4932 13.4161 36.1575 12.3888 36.8201 10.7775C37.089 10.124 37.1668 9.72938 37.171 9C37.1772 7.8995 36.947 7.32987 36.3243 6.90625C35.4428 6.30663 34.1212 6.68425 33.1232 7.82088C32.9183 8.05425 32.7265 8.20413 32.697 8.15388C32.6673 8.10363 32.5722 7.37563 32.4855 6.53613C32.3495 5.21938 32.2882 4.97262 32.0397 4.73912C31.4681 4.20212 27.123 3.37825 23.6138 3.1415C22.0881 3.0385 17.3595 2.99937 16.2388 3.08037ZM23.6101 13.7812C22.9336 14.123 22.4623 14.7798 22.5142 15.3085C22.5627 15.8041 23.0503 15.9185 23.2343 15.4774C23.5026 14.8344 23.9745 14.5 24.6138 14.5C25.1716 14.5 25.452 14.6876 25.741 15.2541C26.0175 15.7961 26.3933 15.9121 26.603 15.5203C26.8777 15.0069 26.3447 14.0929 25.5637 13.7381C24.8802 13.4277 24.2837 13.4409 23.6101 13.7812ZM12.0381 13.8636C11.6515 14.0391 11.4565 14.238 11.2476 14.6694C10.9392 15.3065 10.9437 15.7895 11.2587 15.8494C11.4898 15.8935 11.6425 15.7503 11.9902 15.163C12.5221 14.2651 13.7512 14.3773 14.4176 15.3843C14.7756 15.9253 14.8792 15.9668 15.1627 15.6833C15.3126 15.5334 15.3263 15.4176 15.2256 15.1526C15.0301 14.6383 14.5185 14.0217 14.1136 13.8124C13.6207 13.5575 12.66 13.5811 12.0381 13.8636ZM15.1138 18.9081C15.1138 19.158 15.6076 20.0282 15.9703 20.4179C16.9942 21.5174 19.1662 21.8973 20.6913 21.2436C21.6546 20.8308 22.7237 19.6085 22.7361 18.9062C22.7382 18.7846 21.8945 18.75 18.9263 18.75C15.9358 18.75 15.1138 18.7841 15.1138 18.9081Z"
        fill="hsla(133, 57%, 64%)" />
</svg>