<svg id="eL2K0PhqOFo1" xmlns="http://www.w3.org/2000/svg" xmlns:xlink="http://www.w3.org/1999/xlink"
    viewBox="0 0 38 38" shape-rendering="geometricPrecision" text-rendering="geometricPrecision">
    <g transform="matrix(.726234 0 0 0.70963-27.28588 7.652123)">
        <path
            d="M16.2388,3.08037C12.226,3.3705,9.06435,4.046,7.11735,5.029c-.96288.48625-1.2695.94175-1.57938,2.346-.11375.51562-.22587.95912-.24912.98562-.0585.06688-.63088-.31525-1.3-.868-.80563-.6655-1.274-.86762-2.01025-.86762-.87913,0-1.384879.32775-1.724754,1.11787-.333125.77438-.33825,1.62201-.016125,2.65023.488375,1.5584,2.141249,3.9025,3.911249,5.5469l.98713.917-.14313,1.4153c-.07875.7783-.171,1.6121-.20512,1.8527-.034.2406-.08488,2.0688-.113,4.0625-.03713,2.6347-.00363,3.988.12262,4.9538.2595,1.9853.60375,3.1891.94288,3.2967.33937.1076,2.63262.3054,3.58225.3087l.8961.0033.2138.6562c.3563,1.0947,1.1548,2.6731,1.5542,3.0724c1.4158,1.4158,2.8649.3684,3.7558-2.7145l.2868-.9928l1.3235-.0732c1.9234-.1065,4.6619-.3144,5.3084-.403l.5595-.0766.1383.547c.2575,1.0189.77,2.3335,1.1696,3c.9266,1.5459,2.2797,1.6625,3.1984.2757.4973-.7508.723-1.4977.9836-3.2561.2079-1.4015.2081-1.4023.5869-1.4785c1.1543-.2321,3.3961-.8411,3.7356-1.0147.7279-.3723,1.3092-.9186,1.5862-1.4906.3649-.7538.3308-1.1212-.8286-8.9177l-.547-3.6788.3413-.4232c1.9082-2.3655,2.5725-3.3928,3.2351-5.0041.2689-.6535.3467-1.04812.3509-1.7775.0062-1.1005-.224-1.67013-.8467-2.09375-.8815-.59962-2.2031-.222-3.2011.91463-.2049.23337-.3967.38325-.4262.333-.0297-.05025-.1248-.77825-.2115-1.61775-.136-1.31675-.1973-1.56351-.4458-1.79701-.5716-.537-4.9167-1.36087-8.4259-1.59762-1.5257-.103-6.2543-.14213-7.375-.06113Z"
            transform="translate(45.719221-2.259074)" clip-rule="evenodd" fill="#6fd886"
            fill-rule="evenodd" />
        <path
            d="M7.8696,0.272625c-.51213.54975-.22425,2.140625.509,2.812745.46412.4255,1.30147.353857,1.8401.205237.6796-.18775.7701-.539607.7701-1.093477c0-.5425-.608-1.207505-1.5657-1.712505-.938-.494625-1.2505-.53725-1.5535-.212Z"
            transform="matrix(.976272 0 0 1 44.912897-3.210912)" clip-rule="evenodd" fill="#6fd886"
            fill-rule="evenodd" />
        <path
            d="M28.6251,0.419125c-.7211.454625-1.3863,1.315126-1.3863,1.793375c0,.411061.489905,1.684407,1.3863,1.684407c0,0,1.884833-.423698,1.884833-2.384863c0-.56937-.305758-.926919-.618258-1.239419C29.690675,0.071625,29.5558,0,29.4615,0c-.0945,0-.4708.188625-.8364.419125Z"
            transform="matrix(.976272 0 0 1 43.871626-3.896907)" clip-rule="evenodd" fill="#6fd886"
            fill-rule="evenodd" />
        <path
            d="M16.916651,28.900985c-.3866.1755-.5816.3744-.7905.8058-.3084.6371-.3039,1.120099.0111,1.18.2311.0441.3838-.0991.7315-.686401.5319-.8979,1.761-.785699,2.4274.221301.358.540999.4616.5825.7451.299.1499-.149901.1636-.265701.0629-.5307-.1955-.514302-.7071-1.1309-1.112-1.340201-.4929-.2549-1.4536-.231299-2.0755.051201Z"
            transform="matrix(.976272 0 0 1.100616 40.805443-21.338792)" clip-rule="evenodd"
            fill="#fff" fill-rule="evenodd" />
        <path
            d="M58.864101,21.814415c-.3866.1755-.5816.3744-.7905.8058-.3084.6371-.3039,1.120099.0111,1.18.2311.0441.3838-.0991.7315-.686401.5319-.8979,1.761-.785699,2.4274.221301.358.541.4616.5825.7451.299.1499-.149901.1636-.2657.0629-.5307-.1955-.5143-.7071-1.1309-1.112-1.3402-.4929-.254901-1.4536-.231301-2.0755.0512Z"
            transform="matrix(.976272 0 0 1 10.970477-11.36722)" clip-rule="evenodd" fill="#fff"
            fill-rule="evenodd" />
        <path
            d="M18.757573,48.024048c0,.249901.4938,1.1201.856498,1.5098c1.023901,1.0995,3.195901,1.479401,4.721002.825701.9633-.412801,2.044799-2.337401,2.044799-2.337401s-.8416-.156199-3.809799-.156199c-2.990501,0-3.8125.034099-3.8125.158099Z"
            transform="translate(41.736638-31.680237)" clip-rule="evenodd" fill="#fff"
            fill-rule="evenodd" />
    </g>
    <path
        d="M7.8696,0.272625c-.51213.54975-.22425,2.140625.509,2.812745.46412.4255.89487.54438,1.4335.39576.6796-.18775,1.1767-.73013,1.1767-1.284c0-.5425-.608-1.207505-1.5657-1.712505-.938-.494625-1.2505-.53725-1.5535-.212Zm20.7555.1465C27.904,0.87375,27.2388,1.73425,27.2388,2.2125c0,.81937.6609,1.36587,1.5135,1.2515c1.0184-.325556,1.611-.960327,1.6113-2.06738.000154-.56937-.0526-.718745-.3651-1.031245C29.7975,0.164375,29.5558,0,29.4615,0c-.0945,0-.4708.188625-.8364.419125ZM16.2388,3.08037C12.226,3.3705,9.06435,4.046,7.11735,5.029c-.96288.48625-1.2695.94175-1.57938,2.346-.11375.51562-.22587.95912-.24912.98562-.0585.06688-.63088-.31525-1.3-.868-.80563-.6655-1.274-.86762-2.01025-.86762-.87913,0-1.384879.32775-1.724754,1.11787-.333125.77438-.33825,1.62201-.016125,2.65023.488375,1.5584,2.141249,3.9025,3.911249,5.5469l.98713.917-.14313,1.4153c-.07875.7783-.171,1.6121-.20512,1.8527-.034.2406-.08488,2.0688-.113,4.0625-.03713,2.6347-.00363,3.988.12262,4.9538.2595,1.9853.60375,3.1891.94288,3.2967.33937.1076,2.63262.3054,3.58225.3087l.8961.0033.2138.6562c.3563,1.0947,1.1548,2.6731,1.5542,3.0724c1.4158,1.4158,2.8649.3684,3.7558-2.7145l.2868-.9928l1.3235-.0732c1.9234-.1065,4.6619-.3144,5.3084-.403l.5595-.0766.1383.547c.2575,1.0189.77,2.3335,1.1696,3c.9266,1.5459,2.2797,1.6625,3.1984.2757.4973-.7508.723-1.4977.9836-3.2561.2079-1.4015.2081-1.4023.5869-1.4785c1.1543-.2321,3.3961-.8411,3.7356-1.0147.7279-.3723,1.3092-.9186,1.5862-1.4906.3649-.7538.3308-1.1212-.8286-8.9177l-.547-3.6788.3413-.4232c1.9082-2.3655,2.5725-3.3928,3.2351-5.0041.2689-.6535.3467-1.04812.3509-1.7775.0062-1.1005-.224-1.67013-.8467-2.09375-.8815-.59962-2.2031-.222-3.2011.91463-.2049.23337-.3967.38325-.4262.333-.0297-.05025-.1248-.77825-.2115-1.61775-.136-1.31675-.1973-1.56351-.4458-1.79701-.5716-.537-4.9167-1.36087-8.4259-1.59762-1.5257-.103-6.2543-.14213-7.375-.06113ZM23.6101,13.7812c-.6765.3418-1.1478.9986-1.0959,1.5273.0485.4956.5361.61.7201.1689.2683-.643.7402-.9774,1.3795-.9774.5578,0,.8382.1876,1.1272.7541.2765.542.6523.658.862.2662.2747-.5134-.2583-1.4274-1.0393-1.7822-.6835-.3104-1.28-.2972-1.9536.0431Zm-11.572.0824c-.3866.1755-.5816.3744-.7905.8058-.3084.6371-.3039,1.1201.0111,1.18.2311.0441.3838-.0991.7315-.6864.5319-.8979,1.761-.7857,2.4274.2213.358.541.4616.5825.7451.299.1499-.1499.1636-.2657.0629-.5307-.1955-.5143-.7071-1.1309-1.112-1.3402-.4929-.2549-1.4536-.2313-2.0755.0512Zm3.0757,5.0445c0,.2499.4938,1.1201.8565,1.5098c1.0239,1.0995,3.1959,1.4794,4.721.8257.9633-.4128,2.0448-2.3374,2.0448-2.3374s-.8416-.1562-3.8098-.1562c-2.9905,0-3.8125.0341-3.8125.1581Z"
        transform="translate(103.943419-36.512508)" clip-rule="evenodd" fill="#6fd886"
        fill-rule="evenodd" />
    <path
        d="M23.6101,13.7812c-.6765.3418-1.1478.9986-1.0959,1.5273.0485.4956.5361.61.7201.1689.2683-.643.7402-.9774,1.3795-.9774.5578,0,.8382.1876,1.1272.7541.2765.542.6523.658.862.2662.2747-.5134-.862-1.129618-1.0393-1.7822-.6835-.3104-1.28-.2972-1.9536.0431Zm-11.572.0824c-.3866.1755-.5816.3744-.7905.8058-.3084.6371-.3039,1.1201.0111,1.18.2311.0441.3838-.0991.7315-.6864.5319-.8979,1.761-.7857,2.4274.2213.358.541.4616.5825.7451.299.1499-.1499.1636-.2657.0629-.5307-.1955-.5143-.7071-1.1309-1.112-1.3402-.4929-.2549-1.4536-.2313-2.0755.0512Zm3.0757,5.0445c0,.2499.4938,1.1201.8565,1.5098c1.0239,1.0995,3.1959,1.4794,4.721.8257.9633-.4128,2.0448-2.3374,2.0448-2.3374s-.8416-.1562-3.8098-.1562c-2.9905,0-3.8125.0341-3.8125.1581Z"
        transform="translate(74.433984-44.019563)" clip-rule="evenodd" fill="#6fd886"
        fill-rule="evenodd" />
</svg>